<?xml version="1.0"?>
<svg xmlns="http://www.w3.org/2000/svg" viewBox="0 0 50 50">
    <path d="M 23 3 C 22.448 3 22 3.448 22 4 L 22 11.75 L 17 21.75 L 17 20 C 17 19.448 16.552 19 16 19 L 3 19 C 2.713 19 2.44 19.12875 2.25 19.34375 C 2.06 19.55875 1.965 19.84 2 20.125 L 5 44.125 C 5.063 44.625 5.496 45 6 45 L 16 45 C 16.552 45 17 44.553 17 44 L 17 43 L 18.15625 43 C 18.56925 44.164 19.696 45 21 45 L 40 45 C 42.206 45 44 43.206 44 41 C 44 40.177 43.7395 39.41825 43.3125 38.78125 C 44.8695 38.23425 46 36.742 46 35 C 46 34.021 45.6475 33.1325 45.0625 32.4375 C 46.2235 31.7365 47 30.452 47 29 C 47 28.021 46.6475 27.1325 46.0625 26.4375 C 47.2235 25.7365 48 24.453 48 23 C 48 20.794 46.206 19 44 19 L 29.375 19 C 29.984 17.07 31 13.616 31 12 C 31 8.236 28.24125 3 25.53125 3 L 23 3 z M 24 5 L 25.53125 5 C 26.44825 5 29 8.481 29 12 C 29 13.568 27.6035 18.0835 27.0625 19.6875 C 26.9585 19.9925 26.9995 20.33175 27.1875 20.59375 C 27.3755 20.85575 27.678 21 28 21 L 44 21 C 45.103 21 46 21.897 46 23 C 46 24.103 45.103 25 44 25 L 43 25 C 42.447 25 42 25.447 42 26 C 42 26.553 42.447 27 43 27 C 44.103 27 45 27.897 45 29 C 45 30.103 44.103 31 43 31 L 42 31 C 41.447 31 41 31.447 41 32 C 41 32.553 41.447 33 42 33 C 43.103 33 44 33.897 44 35 C 44 36.103 43.103 37 42 37 L 40 37 C 39.447 37 39 37.447 39 38 C 39 38.553 39.447 39 40 39 C 41.103 39 42 39.897 42 41 C 42 42.103 41.103 43 40 43 L 21 43 C 20.449 43 20 42.552 20 42 C 20 41.447 19.552 41 19 41 L 17 41 L 17 24 L 17.5 24 C 17.879 24 18.23625 23.7765 18.40625 23.4375 L 23.90625 12.4375 C 23.97525 12.2995 24 12.155 24 12 L 24 5 z M 4.125 21 L 15 21 L 15 23 L 15 42 L 15 43 L 6.875 43 L 4.125 21 z M 11.5 38 C 10.671573 38 10 38.671573 10 39.5 C 10 40.328427 10.671573 41 11.5 41 C 12.328427 41 13 40.328427 13 39.5 C 13 38.671573 12.328427 38 11.5 38 z"/>
</svg>
